<?xml version="1.0" encoding="utf-8"?>
<!-- Generator: Adobe Illustrator 16.0.0, SVG Export Plug-In . SVG Version: 6.00 Build 0)  -->
<!DOCTYPE svg PUBLIC "-//W3C//DTD SVG 1.1//EN" "http://www.w3.org/Graphics/SVG/1.1/DTD/svg11.dtd">
<svg version="1.1" id="레이어_1" xmlns="http://www.w3.org/2000/svg" xmlns:xlink="http://www.w3.org/1999/xlink" x="0px"
	 y="0px" width="150.667px" height="150px" viewBox="0 0 150.667 150" enable-background="new 0 0 150.667 150"
	 xml:space="preserve">
<path fill-rule="evenodd" clip-rule="evenodd" fill="#E1E1E1" d="M148.01,138.921c-2.947,2.952-5.784,5.789-8.649,8.659
	c-21.272-21.271-42.569-42.567-63.869-63.867c-21.342,21.34-42.627,42.627-63.861,63.859c-2.898-2.898-5.744-5.748-8.571-8.577
	c21.207-21.208,42.492-42.492,63.766-63.768C45.455,53.857,24.16,32.563,2.91,11.313c2.948-2.943,5.797-5.788,8.639-8.626
	C32.767,23.905,54.052,45.19,75.354,66.492c21.363-21.363,42.658-42.658,63.906-63.906c2.911,2.911,5.748,5.747,8.564,8.563
	c-21.217,21.217-42.512,42.512-63.793,63.793C105.431,96.341,126.72,117.629,148.01,138.921z"/>
</svg>
